<svg width="272" height="224" viewBox="0 0 272 224" fill="none" xmlns="http://www.w3.org/2000/svg">
<path d="M58.2895 128.88L57.5506 133.465L25.0957 128.787L25.8346 124.202L58.2895 128.88Z" fill="#E0E0E0"/>
<path d="M41.9362 112.521L46.5909 113.191L41.4301 145.145L36.7695 144.47L41.9362 112.521Z" fill="#E0E0E0"/>
<path d="M232.819 130.832C232.865 130.902 227.378 134.655 220.559 139.21C213.74 143.766 208.178 147.409 208.131 147.356C208.085 147.304 213.577 143.539 220.39 138.978C227.204 134.416 232.772 130.733 232.819 130.832Z" fill="#E0E0E0"/>
<path d="M252.983 125.742C253.03 125.812 243.901 132.002 232.619 139.56C221.337 147.119 212.103 153.205 212.057 153.135C212.01 153.065 221.139 146.874 232.421 139.31C243.703 131.746 252.919 125.672 252.983 125.742Z" fill="#E0E0E0"/>
<path d="M257.034 131.779C257.081 131.849 247.952 138.039 236.67 145.603C225.388 153.167 216.154 159.242 216.108 159.172C216.061 159.102 225.161 152.94 236.472 145.376C247.783 137.812 256.999 131.715 257.034 131.779Z" fill="#E0E0E0"/>
<path d="M261.069 137.807C261.116 137.877 251.981 144.068 240.705 151.632C229.429 159.195 220.189 165.27 220.143 165.2C220.096 165.13 229.225 158.945 240.507 151.375C251.789 143.806 261.028 137.749 261.069 137.807Z" fill="#E0E0E0"/>
<path d="M265.145 143.876C265.192 143.945 256.063 150.13 244.781 157.694C233.499 165.258 224.265 171.332 224.219 171.268C224.172 171.204 233.301 165.008 244.583 157.444C255.865 149.88 265.07 143.806 265.145 143.876Z" fill="#E0E0E0"/>
<path d="M231.574 27.5061C229.864 27.896 229.032 29.8684 228.869 31.6139C228.706 33.3594 228.927 35.2096 228.194 36.8039C227.368 38.5959 225.395 39.9225 225.331 41.895C225.291 43.0994 226.006 44.2223 225.971 45.4383C225.913 47.4166 223.9 48.9294 223.789 50.8843C223.714 52.3098 224.662 53.6713 224.435 55.0794C224.261 56.1732 223.405 57.0343 223.045 58.0817C222.329 60.1763 223.766 62.4745 225.634 63.6498C226.68 64.3077 227.858 64.7291 229.084 64.8847C230.31 65.0403 231.555 64.9263 232.733 64.5506C233.91 64.1749 234.991 63.5466 235.901 62.7097C236.81 61.8727 237.526 60.8473 237.998 59.705C239.034 57.1914 238.807 54.3579 238.58 51.6524C237.882 43.2118 237.362 34.7597 237.02 26.2959" fill="#263238"/>
<path d="M226.654 57.3093C227.006 57.0905 227.281 56.767 227.44 56.3842C227.608 55.9288 227.675 55.4425 227.638 54.9587C227.574 54.3171 227.431 53.6859 227.213 53.0793C226.935 52.3169 226.831 51.5016 226.91 50.6938C227.056 49.7861 227.707 49.0414 228.295 48.3083C228.612 47.9495 228.876 47.548 229.081 47.1155C229.286 46.6782 229.319 46.1798 229.174 45.7191C228.871 44.7707 227.94 44.0725 227.515 42.9728C227.316 42.4284 227.283 41.8368 227.422 41.2739C227.554 40.7461 227.75 40.2361 228.004 39.7553C228.495 38.8892 228.886 37.9697 229.168 37.0148C229.575 35.1704 229.383 33.4074 229.662 31.9587C229.817 30.7983 230.332 29.7158 231.134 28.8633C231.361 28.6337 231.62 28.4377 231.902 28.2814C232 28.2307 232.103 28.1935 232.211 28.1709C231.846 28.3717 231.511 28.6223 231.216 28.9156C230.473 29.7767 230.004 30.8406 229.872 31.9703C229.77 32.742 229.715 33.5192 229.709 34.2976C229.707 35.2137 229.618 36.1275 229.441 37.0265C229.164 38.0033 228.773 38.9445 228.278 39.8309C227.841 40.7444 227.44 41.815 227.824 42.8157C228.208 43.8165 229.133 44.5089 229.488 45.5795C229.648 46.1084 229.609 46.6777 229.377 47.1795C229.151 47.6554 228.857 48.0963 228.505 48.4886C227.923 49.2218 227.288 49.92 227.149 50.7345C227.067 51.5072 227.159 52.2882 227.417 53.0212C227.624 53.6466 227.753 54.2955 227.8 54.9529C227.829 55.4591 227.74 55.9651 227.539 56.4307C227.414 56.7226 227.213 56.9757 226.957 57.1638C226.866 57.2305 226.763 57.2798 226.654 57.3093Z" fill="#455A64"/>
<path d="M222.076 71.0811L216.839 86.2088L194.939 87.3725L191.285 95.5182L214.151 97.8456C215.232 98.2891 216.391 98.509 217.558 98.492C218.726 98.475 219.878 98.2215 220.945 97.7467C222.012 97.272 222.972 96.5858 223.766 95.7298C224.561 94.8738 225.173 93.8656 225.567 92.7661L231.67 75.7299L222.076 71.0811Z" fill="#FFB573"/>
<path d="M267.373 213.825C267.373 213.825 251.326 162.844 250.983 161.192C250.675 159.691 256.801 123.006 257.581 113.481L235.896 114.29V114.505L226.68 115.017L234.93 219.236H244.909L243.92 184.646C250.075 201.164 258.896 218.003 258.896 218.003L267.373 213.825Z" fill="#FFB573"/>
<path d="M244.31 197.056C244.31 196.741 244.188 185.465 244.188 185.465C244.066 186.14 240.365 175.679 240.453 175.045C240.499 174.713 244.31 197.056 244.31 197.056Z" fill="#A36957"/>
<path d="M240.008 170.104C239.957 170.312 239.935 170.525 239.944 170.739C239.912 171.32 239.912 171.903 239.944 172.484C239.944 172.851 239.996 173.246 240.043 173.677C240.089 174.108 240.154 174.561 240.252 175.033C240.459 176.062 240.733 177.076 241.073 178.07C241.794 180.182 242.597 182.026 243.162 183.365C243.429 183.946 243.662 184.499 243.86 184.941C243.931 185.147 244.029 185.343 244.151 185.523C244.12 185.322 244.061 185.126 243.976 184.941C243.842 184.557 243.639 184.005 243.394 183.324C242.882 181.962 242.114 180.1 241.399 178.012C241.06 177.033 240.782 176.034 240.567 175.021C240.462 174.556 240.392 174.108 240.328 173.689C240.264 173.27 240.218 172.874 240.188 172.525C240.119 171.803 240.09 171.222 240.072 170.814C240.083 170.576 240.061 170.337 240.008 170.104Z" fill="#A36957"/>
<path d="M234.768 219.771V218.835L244.991 218.387L245.02 222.256L244.391 222.297C241.581 222.46 230.107 222.937 228.234 222.372C226.133 221.744 234.768 219.771 234.768 219.771Z" fill="#455A64"/>
<path d="M245.156 222.037C245.098 222.041 245.039 222.041 244.981 222.037L244.481 222.072L242.631 222.153C241.071 222.217 238.913 222.276 236.533 222.287C234.153 222.299 231.989 222.258 230.424 222.212L228.579 222.136H228.073H227.898C227.957 222.131 228.015 222.131 228.073 222.136H228.579L230.429 222.171C231.989 222.171 234.147 222.217 236.527 222.206C238.907 222.194 241.071 222.153 242.631 222.113L244.481 222.066H245.156V222.037Z" fill="#263238"/>
<path d="M231.364 222.351C231.279 222.047 231.162 221.752 231.015 221.473C230.831 221.215 230.618 220.979 230.381 220.769C230.698 220.882 230.962 221.11 231.12 221.409C231.312 221.683 231.399 222.018 231.364 222.351Z" fill="#263238"/>
<path d="M234.388 220.832C234.388 220.832 234.22 220.675 234.068 220.442C233.917 220.21 233.824 220.006 233.853 219.989C233.882 219.971 234.022 220.14 234.173 220.373C234.324 220.605 234.417 220.815 234.388 220.832Z" fill="#263238"/>
<path d="M235.27 220.404C235.27 220.433 235.084 220.322 234.909 220.165C234.734 220.008 234.606 219.862 234.63 219.839C234.653 219.816 234.816 219.921 234.99 220.078C235.165 220.235 235.293 220.351 235.27 220.404Z" fill="#263238"/>
<path d="M235.793 219.425C235.622 219.488 235.439 219.512 235.258 219.495C235.08 219.519 234.899 219.501 234.729 219.443C234.898 219.38 235.079 219.357 235.258 219.373C235.438 219.348 235.621 219.366 235.793 219.425Z" fill="#263238"/>
<path d="M235.957 218.741C235.783 218.853 235.581 218.914 235.375 218.915C235.177 218.941 234.976 218.913 234.793 218.834C234.985 218.801 235.18 218.786 235.375 218.787C235.567 218.753 235.762 218.737 235.957 218.741Z" fill="#263238"/>
<path d="M234.078 219.935C233.861 219.976 233.638 219.976 233.421 219.935C233.186 219.906 232.954 219.856 232.729 219.784C232.589 219.745 232.454 219.69 232.327 219.621C232.25 219.575 232.192 219.503 232.164 219.417C232.154 219.368 232.157 219.318 232.175 219.271C232.192 219.225 232.223 219.185 232.263 219.155C232.424 219.077 232.601 219.036 232.78 219.034C232.959 219.033 233.136 219.071 233.298 219.146C233.461 219.221 233.605 219.331 233.72 219.469C233.834 219.606 233.917 219.767 233.962 219.941C233.974 219.998 233.974 220.058 233.962 220.115C233.896 219.905 233.794 219.708 233.66 219.533C233.505 219.359 233.303 219.234 233.078 219.173C232.82 219.089 232.54 219.11 232.298 219.231C232.199 219.306 232.24 219.429 232.35 219.498C232.469 219.563 232.594 219.615 232.723 219.656C232.942 219.727 233.165 219.784 233.392 219.824C233.828 219.917 234.078 219.917 234.078 219.935Z" fill="#263238"/>
<path d="M233.87 219.969C233.785 219.834 233.756 219.671 233.788 219.515C233.81 219.344 233.871 219.18 233.969 219.038C234.023 218.94 234.102 218.859 234.196 218.8C234.291 218.741 234.399 218.706 234.51 218.7C234.576 218.716 234.633 218.755 234.671 218.811C234.709 218.868 234.724 218.936 234.714 219.003C234.699 219.107 234.661 219.206 234.603 219.294C234.515 219.438 234.411 219.573 234.295 219.695C234.193 219.811 234.066 219.901 233.922 219.957C233.922 219.957 234.05 219.841 234.231 219.631C234.335 219.511 234.427 219.381 234.504 219.241C234.591 219.102 234.655 218.851 234.504 218.822C234.353 218.793 234.178 218.974 234.079 219.102C233.987 219.228 233.923 219.373 233.893 219.526C233.869 219.673 233.862 219.821 233.87 219.969Z" fill="#263238"/>
<path d="M244.876 219.251C244.876 219.251 244.585 219.251 244.125 219.281C243.526 219.352 242.96 219.59 242.49 219.968C242.02 220.345 241.665 220.847 241.466 221.416C241.315 221.852 241.303 222.149 241.28 222.143C241.257 222.137 241.28 222.068 241.28 221.94C241.295 221.752 241.33 221.567 241.385 221.387C241.57 220.791 241.926 220.263 242.409 219.868C242.898 219.48 243.491 219.248 244.113 219.199C244.307 219.176 244.502 219.176 244.695 219.199C244.757 219.209 244.818 219.226 244.876 219.251Z" fill="#263238"/>
<path d="M240.004 221.204C239.516 221.318 239.016 221.367 238.515 221.35C238.017 221.375 237.518 221.332 237.031 221.222C237.031 221.187 237.695 221.222 238.515 221.222C239.335 221.222 239.999 221.169 240.004 221.204Z" fill="#263238"/>
<path d="M242.012 221.187C242.012 221.187 241.959 221.327 241.89 221.478C241.82 221.629 241.785 221.769 241.75 221.763C241.715 221.757 241.698 221.606 241.779 221.426C241.86 221.245 241.988 221.158 242.012 221.187Z" fill="#263238"/>
<path d="M242.766 220.256C242.766 220.256 242.725 220.384 242.62 220.489C242.515 220.594 242.411 220.663 242.382 220.64C242.353 220.617 242.422 220.512 242.527 220.401C242.632 220.291 242.737 220.227 242.766 220.256Z" fill="#263238"/>
<path d="M243.808 219.823C243.808 219.858 243.668 219.858 243.517 219.911C243.366 219.963 243.261 220.044 243.232 220.021C243.203 219.998 243.29 219.858 243.476 219.794C243.663 219.73 243.82 219.788 243.808 219.823Z" fill="#263238"/>
<path d="M244.575 219.624C244.575 219.654 244.54 219.699 244.465 219.724C244.391 219.749 244.326 219.754 244.316 219.724C244.306 219.694 244.356 219.649 244.425 219.624C244.495 219.599 244.565 219.599 244.575 219.624Z" fill="#263238"/>
<path d="M258.69 218.872L258.306 218.016L267.446 213.426L269.058 216.917L268.476 217.214C265.98 218.511 255.711 223.643 253.767 223.899C251.62 224.207 258.69 218.872 258.69 218.872Z" fill="#455A64"/>
<path d="M269.09 216.667L268.939 216.76L268.491 216.993L266.839 217.831C265.442 218.523 263.499 219.46 261.329 220.449C259.158 221.438 257.169 222.282 255.726 222.881L254.009 223.573L253.544 223.754C253.49 223.779 253.433 223.796 253.375 223.806L253.532 223.73L253.992 223.527L255.691 222.8C257.128 222.183 259.106 221.322 261.276 220.333C263.447 219.343 265.396 218.424 266.804 217.749L268.468 216.952L268.927 216.737L269.09 216.667Z" fill="#263238"/>
<path d="M256.761 222.578C256.559 222.332 256.331 222.11 256.08 221.914C255.807 221.753 255.516 221.624 255.213 221.53C255.547 221.526 255.874 221.624 256.151 221.811C256.428 221.998 256.641 222.266 256.761 222.578Z" fill="#263238"/>
<path d="M258.851 219.953C258.851 219.953 258.63 219.884 258.397 219.732C258.164 219.581 257.996 219.436 258.013 219.406C258.03 219.377 258.234 219.476 258.467 219.628C258.7 219.779 258.868 219.924 258.851 219.953Z" fill="#263238"/>
<path d="M259.434 219.255C259.434 219.284 259.236 219.255 259.009 219.185C258.782 219.115 258.613 219.028 258.619 218.993C258.766 218.979 258.915 219.003 259.05 219.063C259.271 219.115 259.445 219.197 259.434 219.255Z" fill="#263238"/>
<path d="M259.452 218.12C259.452 218.155 259.26 218.277 258.993 218.405C258.838 218.498 258.665 218.555 258.486 218.574C258.486 218.539 258.678 218.417 258.94 218.289C259.097 218.197 259.271 218.139 259.452 218.12Z" fill="#263238"/>
<path d="M259.34 217.434C259.34 217.434 259.172 217.667 258.869 217.836C258.697 217.952 258.494 218.013 258.287 218.01C258.454 217.898 258.631 217.802 258.817 217.725C259.102 217.568 259.311 217.405 259.34 217.434Z" fill="#263238"/>
<path d="M258.159 219.292C257.981 219.414 257.785 219.504 257.577 219.56C257.348 219.626 257.115 219.675 256.879 219.705C256.736 219.723 256.591 219.723 256.448 219.705C256.358 219.699 256.275 219.657 256.215 219.589C256.188 219.547 256.174 219.499 256.174 219.449C256.174 219.4 256.188 219.351 256.215 219.31C256.392 219.095 256.638 218.949 256.911 218.896C257.184 218.843 257.466 218.886 257.711 219.019C257.855 219.094 257.982 219.199 258.083 219.327C258.153 219.42 258.182 219.478 258.176 219.484C258.033 219.324 257.861 219.192 257.67 219.094C257.465 218.998 257.236 218.964 257.012 218.995C256.879 219.009 256.75 219.049 256.632 219.113C256.514 219.177 256.41 219.264 256.326 219.368C256.262 219.478 256.326 219.571 256.483 219.589C256.616 219.6 256.751 219.6 256.884 219.589C257.116 219.566 257.345 219.525 257.571 219.467C257.903 219.374 258.159 219.275 258.159 219.292Z" fill="#263238"/>
<path d="M257.974 219.399C257.844 219.307 257.753 219.17 257.718 219.015C257.667 218.852 257.655 218.678 257.683 218.509C257.693 218.397 257.731 218.29 257.794 218.197C257.858 218.105 257.943 218.03 258.044 217.98C258.189 217.933 258.527 218.23 258.55 218.34C258.573 218.451 258.381 218.393 258.369 218.486C258.351 218.651 258.312 218.813 258.253 218.969C258.211 219.118 258.131 219.255 258.02 219.364C258.02 219.364 258.09 219.207 258.172 218.945C258.213 218.791 258.243 218.633 258.259 218.474C258.259 218.311 258.259 218.061 258.073 218.102C257.887 218.142 257.834 218.369 257.793 218.532C257.758 218.683 257.758 218.841 257.793 218.992C257.841 219.133 257.902 219.269 257.974 219.399Z" fill="#263238"/>
<path d="M267.788 214.226C267.788 214.226 267.509 214.325 267.114 214.563C266.596 214.872 266.175 215.32 265.898 215.855C265.628 216.395 265.514 216.999 265.566 217.6C265.601 218.066 265.711 218.333 265.688 218.345C265.65 218.287 265.621 218.225 265.601 218.159C265.543 217.981 265.502 217.798 265.479 217.612C265.395 216.992 265.503 216.362 265.786 215.805C266.07 215.248 266.517 214.79 267.067 214.493C267.232 214.402 267.405 214.328 267.585 214.272C267.65 214.247 267.719 214.231 267.788 214.226Z" fill="#263238"/>
<path d="M264.12 218.024C263.299 218.595 262.383 219.012 261.414 219.258C261.414 219.223 262.025 218.99 262.77 218.676C263.514 218.362 264.102 217.995 264.12 218.024Z" fill="#263238"/>
<path d="M265.886 217.192C265.915 217.192 265.886 217.337 265.886 217.506C265.886 217.675 265.886 217.814 265.886 217.826C265.886 217.838 265.77 217.698 265.77 217.506C265.77 217.314 265.857 217.174 265.886 217.192Z" fill="#263238"/>
<path d="M266.169 216.021C266.198 216.021 266.169 216.155 266.134 216.295C266.099 216.434 266.012 216.539 265.983 216.528C265.954 216.516 265.983 216.394 266.018 216.254C266.052 216.114 266.134 216.01 266.169 216.021Z" fill="#263238"/>
<path d="M266.974 215.182C266.974 215.217 266.858 215.27 266.741 215.38C266.625 215.491 266.561 215.607 266.532 215.595C266.503 215.584 266.532 215.421 266.66 215.287C266.788 215.153 266.968 215.182 266.974 215.182Z" fill="#263238"/>
<path d="M267.548 214.686C267.548 214.686 267.548 214.766 267.488 214.821C267.428 214.875 267.373 214.905 267.353 214.885C267.333 214.865 267.353 214.806 267.413 214.751C267.473 214.696 267.528 214.666 267.548 214.686Z" fill="#263238"/>
<path d="M256.133 96.2831L254.434 75.5115L263.161 75.6686C263.161 75.6686 263.563 72.6023 262.277 65.8879C261.486 61.7685 258.745 59.2433 255.667 57.7422V57.684L255.4 57.6142C252.866 56.4767 250.16 55.7707 247.394 55.5254L236.659 55.6476C236.659 55.6476 228.461 54.6003 223.94 60.471C222.194 62.7227 216.777 78.1356 216.777 78.1356L229.665 84.338L228.461 75.7908C228.461 75.7908 228.705 81.9873 229.496 83.9365C229.933 85.0303 231.242 88.4283 231.242 88.4283L231.073 98.6802L256.133 96.2831Z" fill="#407BFF"/>
<path d="M250.241 72.4871L248.646 79.2714H263.675L262.686 67.8906L250.241 72.4871Z" fill="#407BFF"/>
<path d="M263.668 79.2589C263.011 79.1379 262.345 79.0717 261.678 79.0611C260.444 78.9912 258.769 78.9272 256.86 78.9389C254.952 78.9505 253.27 79.032 252.037 79.1251C251.37 79.1483 250.706 79.2301 250.053 79.3694C250.719 79.4225 251.388 79.4225 252.054 79.3694C253.282 79.3287 254.963 79.2822 256.86 79.2763C258.757 79.2705 260.439 79.2763 261.672 79.3054C262.337 79.3427 263.005 79.3272 263.668 79.2589Z" fill="#263238"/>
<path d="M249.561 67.8457C249.489 68.4247 249.474 69.0092 249.514 69.5912C249.514 70.656 249.561 72.1222 249.625 73.7455C249.689 75.3689 249.764 76.8409 249.834 77.8998C249.837 78.4865 249.9 79.0713 250.02 79.6454C250.092 79.0664 250.108 78.4818 250.067 77.8998C250.067 76.8351 250.02 75.363 249.956 73.7397C249.892 72.1164 249.817 70.6502 249.747 69.5854C249.745 69.0007 249.682 68.4177 249.561 67.8457Z" fill="#263238"/>
<g opacity="0.3">
<path d="M235.951 73.7031C235.951 73.7031 239.291 98.4719 248.682 97.8144C248.682 97.8144 252.912 97.7679 254.267 94.9576V93.8521L235.951 73.7031Z" fill="black"/>
</g>
<g opacity="0.3">
<path d="M249.593 69.29L247.795 81.433L248.959 83.5625L250.879 79.3965L250.064 79.3733L249.593 69.29Z" fill="black"/>
</g>
<path d="M231.207 88.4244C231.096 88.2431 231.01 88.0473 230.951 87.8426C230.806 87.4644 230.614 86.9116 230.369 86.2192C229.787 84.4151 229.307 82.5794 228.932 80.7209C228.559 78.8613 228.322 76.977 228.222 75.0829C228.187 74.3556 228.176 73.7679 228.187 73.3374C228.173 73.127 228.186 72.9156 228.228 72.709C228.275 72.709 228.31 73.605 228.432 75.0363C228.596 76.9133 228.862 78.7799 229.229 80.6278C229.66 82.7922 230.177 84.7297 230.573 86.1203C230.759 86.7662 230.916 87.3189 231.044 87.7727C231.124 87.9828 231.179 88.2015 231.207 88.4244Z" fill="#263238"/>
<path d="M235.013 95.557C234.932 95.557 234.699 95.0508 234.496 94.3933C234.32 93.9904 234.243 93.5519 234.269 93.1133C234.525 93.4688 234.702 93.8757 234.786 94.306C234.953 94.7012 235.031 95.1284 235.013 95.557Z" fill="#263238"/>
<path d="M236.346 95.451C235.906 94.2838 235.887 92.9997 236.294 91.8203C236.339 92.4246 236.339 93.0314 236.294 93.6356C236.357 94.2386 236.375 94.8454 236.346 95.451Z" fill="#263238"/>
<path d="M229.928 84.5948C229.888 84.6647 226.891 83.245 223.231 81.418C219.572 79.591 216.633 78.0434 216.668 77.9677C216.703 77.8921 219.705 79.3176 223.365 81.1445C227.025 82.9715 229.963 84.5192 229.928 84.5948Z" fill="#263238"/>
<path d="M235.254 57.6534C235.318 54.7093 235.335 51.6139 235.335 51.6139C235.335 51.6139 231.559 50.8867 230.901 45.9178C230.273 41.1816 232.03 30.0627 232.03 30.0627C237.546 27.9797 243.277 29.8707 247.053 34.3392L246.116 58.2353C246.006 61.0106 243.533 63.1285 240.566 62.9889C237.563 62.8434 235.189 60.4579 235.254 57.6534Z" fill="#FFB573"/>
<path d="M231.698 38.9176C231.692 39.0807 231.75 39.2396 231.858 39.3618C231.966 39.484 232.117 39.5603 232.279 39.575C232.362 39.583 232.445 39.5741 232.524 39.5488C232.603 39.5235 232.676 39.4824 232.739 39.428C232.802 39.3735 232.853 39.3069 232.889 39.2321C232.925 39.1574 232.945 39.0761 232.949 38.9932C232.954 38.8307 232.896 38.6725 232.788 38.5512C232.679 38.4299 232.529 38.3549 232.367 38.3415C232.284 38.329 232.199 38.3345 232.119 38.3576C232.038 38.3808 231.963 38.4211 231.9 38.4758C231.836 38.5306 231.785 38.5983 231.75 38.6746C231.715 38.7508 231.697 38.8337 231.698 38.9176Z" fill="#263238"/>
<path d="M231.499 38.1071C231.574 38.1885 232.081 37.8452 232.75 37.8685C233.419 37.8918 233.913 38.2409 233.995 38.1594C234.076 38.078 233.96 37.9732 233.745 37.8045C233.453 37.5935 233.104 37.4776 232.744 37.4729C232.39 37.4594 232.04 37.5615 231.749 37.7638C231.534 37.9209 231.458 38.0663 231.499 38.1071Z" fill="#263238"/>
<path d="M238.629 39.3765C238.623 39.54 238.68 39.6997 238.788 39.8222C238.897 39.9448 239.048 40.0206 239.211 40.034C239.295 40.0467 239.38 40.0411 239.461 40.0175C239.542 39.994 239.617 39.9532 239.68 39.8978C239.744 39.8425 239.795 39.774 239.829 39.697C239.864 39.6201 239.881 39.5365 239.88 39.4522C239.887 39.2893 239.83 39.1303 239.721 39.0087C239.613 38.8871 239.461 38.8125 239.299 38.8005C239.216 38.788 239.131 38.7934 239.05 38.8166C238.97 38.8398 238.895 38.8801 238.832 38.9348C238.768 38.9895 238.717 39.0573 238.682 39.1336C238.647 39.2098 238.629 39.2927 238.629 39.3765Z" fill="#263238"/>
<path d="M238.575 38.5246C238.65 38.6119 239.156 38.2686 239.826 38.2861C240.495 38.3035 240.989 38.6584 241.076 38.577C241.164 38.4955 241.036 38.3908 240.82 38.2279C240.534 38.0113 240.185 37.8929 239.826 37.8904C239.47 37.8797 239.119 37.9815 238.825 38.1813C238.615 38.3384 238.54 38.4839 238.575 38.5246Z" fill="#263238"/>
<path d="M235.999 43.5293C235.642 43.4065 235.27 43.3303 234.894 43.3024C234.719 43.3024 234.556 43.2384 234.533 43.122C234.519 42.9402 234.564 42.7586 234.661 42.6042L235.208 41.2951C235.717 40.1824 236.135 39.0305 236.459 37.8506C235.863 38.9197 235.353 40.0345 234.934 41.1845C234.754 41.6442 234.573 42.0864 234.405 42.5053C234.292 42.7131 234.255 42.9538 234.3 43.186C234.323 43.2491 234.36 43.3061 234.408 43.3525C234.457 43.3989 234.515 43.4335 234.579 43.4537C234.676 43.4816 234.776 43.4973 234.876 43.5002C235.248 43.5574 235.625 43.5672 235.999 43.5293Z" fill="#263238"/>
<path d="M235.365 51.6108C237.693 51.704 240.001 51.1501 242.033 50.0107C242.033 50.0107 240.34 53.3679 235.4 52.7803L235.365 51.6108Z" fill="#A36957"/>
<path d="M240.793 36.5334C240.654 36.7486 240.13 36.6555 239.548 36.5334C238.966 36.4112 238.454 36.3123 238.384 36.0621C238.315 35.8119 238.925 35.4802 239.705 35.6373C240.485 35.7944 240.933 36.3472 240.793 36.5334Z" fill="#263238"/>
<path d="M234.015 35.572C233.962 35.8222 233.404 35.9153 232.764 35.9444C232.124 35.9735 231.559 35.9444 231.484 35.6884C231.408 35.4324 231.949 35.0716 232.723 35.0367C233.497 35.0018 234.067 35.3335 234.015 35.572Z" fill="#263238"/>
<path d="M236.019 45.1488C235.946 45.1314 235.869 45.1391 235.8 45.1708C235.732 45.2024 235.676 45.2562 235.641 45.3234C235.608 45.3827 235.591 45.4497 235.592 45.5176C235.593 45.5856 235.611 45.6521 235.645 45.7107C235.68 45.7693 235.729 45.8179 235.788 45.8517C235.847 45.8855 235.914 45.9032 235.982 45.9032C236.05 45.9032 236.116 45.8855 236.175 45.8517C236.234 45.8179 236.283 45.7693 236.318 45.7107C236.352 45.6521 236.371 45.5856 236.371 45.5176C236.372 45.4497 236.355 45.3827 236.322 45.3234C236.28 45.2452 236.213 45.1836 236.132 45.1487C236.05 45.1138 235.959 45.1077 235.874 45.1314" fill="#A36957"/>
<path d="M236.208 45.2253C236.208 45.1963 236.097 45.0275 235.8 45.0915C235.711 45.1147 235.63 45.1607 235.565 45.225C235.5 45.2894 235.452 45.3697 235.428 45.4581C235.397 45.5695 235.399 45.6877 235.436 45.7975C235.472 45.9074 235.54 46.0039 235.631 46.0748C235.728 46.1411 235.843 46.1766 235.96 46.1766C236.078 46.1766 236.192 46.1411 236.289 46.0748C236.366 46.0227 236.427 45.9495 236.464 45.864C236.501 45.7784 236.513 45.684 236.498 45.5919C236.44 45.2835 236.213 45.237 236.202 45.2777C236.19 45.3184 236.283 45.4232 236.266 45.6035C236.262 45.6481 236.247 45.691 236.223 45.7286C236.198 45.7661 236.165 45.7971 236.126 45.8188C236.081 45.8449 236.03 45.8586 235.978 45.8586C235.926 45.8586 235.874 45.8449 235.829 45.8188C235.789 45.7844 235.758 45.74 235.739 45.6901C235.721 45.6401 235.716 45.5862 235.725 45.5337C235.731 45.4878 235.749 45.4441 235.776 45.4066C235.804 45.3691 235.84 45.3388 235.882 45.3184C236.045 45.2195 236.19 45.2661 236.208 45.2253Z" fill="#263238"/>
<path d="M244.748 40.1418C244.166 41.5033 242.724 42.5564 242.921 44.0285C243.049 44.9769 243.66 45.8612 243.544 46.8155C243.393 47.9791 242.153 48.8403 241.973 50.033C241.758 51.4934 243.183 52.628 243.748 53.9895C244.58 55.9794 243.521 58.2136 243.492 60.3897C243.526 62.0418 244.158 63.6255 245.27 64.8473C246.383 66.069 247.901 66.846 249.543 67.0343C250.869 67.1448 252.365 66.7434 253.034 65.603C253.616 64.6604 253.487 63.4618 253.825 62.4203C254.337 60.861 255.821 59.7206 256.152 58.1147C256.734 55.2056 253.185 52.7618 253.418 49.7828C253.517 48.5086 254.302 47.4031 254.634 46.1696C254.845 45.359 254.861 44.5099 254.681 43.6917C254.501 42.8736 254.13 42.1097 253.598 41.4626C252.719 40.4211 251.451 39.7171 250.689 38.5999C249.845 37.3141 249.816 35.6907 249.525 34.1721C249.135 32.3263 248.282 30.6097 247.048 29.1827C245.814 27.7556 244.238 26.6648 242.468 26.0122C240.698 25.3595 238.791 25.1664 236.926 25.4507C235.06 25.7351 233.298 26.4876 231.802 27.6381C231.802 27.6381 230.959 31.4724 234.898 32.1183C238.837 32.7641 240.658 32.0194 241.1 33.5961C240.996 34.2457 241.047 34.9107 241.249 35.5367C241.452 36.1627 241.799 36.7319 242.264 37.1977C243.87 38.9316 245.4 38.5592 244.748 40.1418Z" fill="#263238"/>
<path d="M251.036 66.7699C250.915 66.7741 250.794 66.7623 250.675 66.735C250.334 66.6745 249.999 66.583 249.675 66.4615C248.473 66.0009 247.419 65.2226 246.626 64.2098C246.069 63.511 245.633 62.7245 245.334 61.8825C244.994 60.9236 244.815 59.915 244.805 58.8977C244.792 57.7763 244.933 56.6586 245.224 55.5754C245.382 55.0033 245.577 54.4417 245.805 53.8939C246.046 53.3486 246.257 52.7912 246.44 52.224C246.6 51.665 246.6 51.0723 246.44 50.5134C246.269 49.9631 246.049 49.4295 245.782 48.9192C245.512 48.4131 245.285 47.8857 245.101 47.3424C244.922 46.8046 244.88 46.2306 244.979 45.6725C245.212 44.5786 245.875 43.7641 246.271 42.932C246.648 42.1619 246.828 41.3102 246.794 40.4534C246.742 39.1996 246.287 37.996 245.497 37.0206C245.191 36.6789 244.863 36.3582 244.514 36.0605C244.922 36.2898 245.286 36.5891 245.59 36.9449C246.438 37.9189 246.937 39.147 247.01 40.436C247.058 41.3301 246.882 42.2221 246.498 43.031C246.096 43.8921 245.45 44.7125 245.253 45.7132C245.055 46.714 245.526 47.7671 246.044 48.7795C246.326 49.3045 246.556 49.856 246.73 50.4261C246.902 51.0348 246.902 51.6792 246.73 52.288C246.537 52.875 246.314 53.4517 246.061 54.016C245.833 54.552 245.638 55.1019 245.48 55.6626C245.191 56.7185 245.048 57.8089 245.055 58.9035C245.037 60.7677 245.638 62.585 246.765 64.0702C247.519 65.0704 248.522 65.8549 249.675 66.3452C250.542 66.6826 251.042 66.735 251.036 66.7699Z" fill="#455A64"/>
<path d="M250.421 37.4108C250.137 37.4842 249.846 37.5271 249.554 37.5388C248.755 37.6242 247.949 37.6027 247.157 37.4748C246.556 37.3858 245.979 37.1779 245.459 36.8632C244.94 36.5485 244.488 36.1333 244.131 35.642C243.798 35.0204 243.533 34.365 243.34 33.687C243.091 33.0098 242.625 32.4346 242.013 32.0521C240.739 31.2433 239.244 31.1444 237.94 30.9873C236.738 30.9274 235.571 30.563 234.548 29.9284C233.863 29.4745 233.368 28.7851 233.158 27.9908C233.107 27.7756 233.093 27.5532 233.117 27.3334C233.117 27.1821 233.152 27.1064 233.163 27.1064C233.17 27.3946 233.207 27.6813 233.274 27.9617C233.515 28.7044 234.009 29.3387 234.67 29.7538C235.674 30.3395 236.808 30.6674 237.969 30.708C239.273 30.8593 240.82 30.9349 242.182 31.796C242.848 32.2145 243.356 32.843 243.625 33.5823C243.807 34.2431 244.059 34.8828 244.375 35.4907C245.053 36.4204 246.068 37.0471 247.203 37.2362C247.97 37.3788 248.751 37.4315 249.53 37.3933C249.827 37.3766 250.125 37.3825 250.421 37.4108Z" fill="#455A64"/>
<path d="M249.023 32.6461C248.804 32.7194 248.573 32.7529 248.342 32.745C247.258 32.7523 246.213 32.3346 245.433 31.5813C245.077 31.2244 244.774 30.8189 244.531 30.3769C244.008 29.4925 243.501 28.4045 242.413 27.9507C241.365 27.599 240.248 27.5013 239.155 27.6656C238.233 27.7952 237.296 27.7952 236.374 27.6656C235.732 27.5765 235.128 27.3106 234.628 26.8976C234.499 26.7851 234.386 26.6559 234.291 26.5135C234.221 26.4127 234.192 26.3603 234.204 26.3564C234.204 26.3564 234.367 26.5426 234.704 26.8045C235.202 27.1583 235.78 27.3823 236.386 27.4561C237.291 27.5583 238.207 27.5426 239.109 27.4096C240.25 27.2232 241.419 27.3232 242.512 27.7005C243.074 27.953 243.555 28.3557 243.903 28.8642C244.21 29.3177 244.491 29.7878 244.747 30.2722C244.976 30.6951 245.26 31.0863 245.59 31.4359C245.882 31.7315 246.218 31.9807 246.585 32.1748C247.126 32.4574 247.721 32.622 248.331 32.6577C248.779 32.6519 249.017 32.617 249.023 32.6461Z" fill="#455A64"/>
<path d="M252.764 65.514C252.735 65.514 252.921 65.1299 253.136 64.4085C253.428 63.3956 253.557 62.3431 253.52 61.2898C253.478 59.7307 253.053 58.206 252.281 56.8504C251.856 56.0882 251.211 55.4074 250.681 54.5696C250.401 54.1428 250.204 53.6671 250.099 53.1674C250.007 52.6414 250.052 52.1006 250.227 51.5964C250.553 50.5898 251.135 49.7462 251.263 48.8211C251.391 47.8959 250.949 47.0755 250.506 46.3017C250.278 45.9251 250.071 45.5367 249.884 45.138C249.714 44.7514 249.602 44.3415 249.552 43.922C249.498 43.1826 249.521 42.4396 249.622 41.7052C249.808 40.667 249.712 39.5979 249.343 38.6098C249.178 38.2637 248.944 37.9548 248.656 37.7021C248.656 37.7021 248.685 37.7021 248.726 37.7371C248.795 37.7713 248.858 37.8165 248.912 37.8709C249.14 38.0604 249.324 38.2965 249.453 38.5633C249.874 39.5598 250.005 40.6549 249.832 41.7226C249.751 42.4434 249.742 43.1703 249.802 43.8929C249.946 44.7058 250.268 45.4768 250.745 46.1504C250.993 46.5436 251.206 46.9584 251.379 47.3897C251.563 47.8553 251.623 48.3603 251.554 48.856C251.414 49.8742 250.815 50.7353 250.512 51.6837C250.354 52.1413 250.312 52.6313 250.39 53.1092C250.492 53.5715 250.677 54.0112 250.937 54.4067C251.432 55.2154 252.101 55.9078 252.525 56.7049C253.305 58.1063 253.721 59.6805 253.736 61.284C253.754 62.3573 253.589 63.4258 253.247 64.4434C253.154 64.7188 253.041 64.9871 252.909 65.2463C252.874 65.342 252.825 65.4321 252.764 65.514Z" fill="#455A64"/>
<path d="M229.041 173.901C229.041 173.901 225.12 136.756 224.893 123.031C224.666 109.305 231.066 95.7602 231.066 95.7602L256.131 94.7188C256.131 94.7188 261.089 108.642 261.176 114.501C261.35 125.87 258.156 137.094 258.523 146.112L259.361 173.924" fill="#263238"/>
<path d="M255.347 79.2948L250.495 79.4112C250.308 80.3897 249.937 81.3237 249.401 82.1633C245.328 75.1231 242.203 65.6973 241.424 61.9095C241.54 61.5314 241.674 61.1124 241.843 60.647C241.964 59.94 241.942 59.2159 241.779 58.5174C241.639 57.6738 241.406 56.5392 241.336 56.0155C241.121 54.4097 240.859 54.1595 240.301 54.3398C239.544 54.59 240.615 58.8375 239.992 58.9305C239.655 58.9771 239.248 57.5225 239.131 56.3297C239.015 55.137 238.468 51.4597 238.078 51.2154C237.496 50.8546 236.99 51.4248 237.141 52.6118C237.293 53.7987 237.473 57.4061 236.845 57.4585C236.216 57.5109 235.681 51.4132 235.681 51.4132C235.681 51.4132 235.78 50.0866 235.047 50.1157C233.732 50.1739 234.762 56.5974 234.872 57.2083C234.954 57.6272 234.29 57.7087 234.209 57.249C234.127 56.7894 233.825 51.1572 232.463 51.2037C231.428 51.2037 233.261 56.4926 232.679 57.7145C232.097 58.9364 231.701 53.5718 230.718 53.6416C230.351 53.6707 230.078 53.7406 230.753 56.7719C231.399 59.1804 232.176 61.552 233.08 63.8762C234.64 72.2837 241.482 99.182 252.205 94.2597C258.21 91.5018 260.642 79.2948 260.642 79.2948H255.347Z" fill="#FFB573"/>
<path d="M234.665 57.6203C234.711 57.6319 234.759 57.6319 234.805 57.6203C234.875 57.5988 234.935 57.5531 234.975 57.4912C235.014 57.4294 235.03 57.3555 235.02 57.2828C235.02 56.9221 234.95 56.3984 234.869 55.7177C234.732 54.8972 234.643 54.0697 234.601 53.239C234.601 52.7503 234.601 52.2266 234.63 51.6739C234.639 51.3929 234.668 51.1128 234.717 50.8361C234.764 50.5742 234.938 50.2542 235.142 50.3066H235.177C235.381 50.3066 235.544 50.4579 235.608 50.7022C235.68 50.9555 235.707 51.2193 235.689 51.4819C235.809 53.1114 236.017 54.7332 236.312 56.3402C236.358 56.5555 236.405 56.7766 236.475 56.9977C236.506 57.1109 236.544 57.2217 236.591 57.3294C236.621 57.3893 236.654 57.4476 236.69 57.5039C236.716 57.5464 236.752 57.5823 236.794 57.6085C236.837 57.6348 236.884 57.6508 236.934 57.6552C237.019 57.6459 237.099 57.6116 237.164 57.5567C237.23 57.5018 237.277 57.4287 237.301 57.3468C237.351 57.233 237.388 57.114 237.411 56.9919C237.457 56.7574 237.488 56.5203 237.504 56.282C237.557 55.3125 237.544 54.3405 237.464 53.3729C237.39 52.8897 237.371 52.3999 237.405 51.9125C237.427 51.7019 237.529 51.5078 237.691 51.3714C237.728 51.3492 237.769 51.3351 237.813 51.3301C237.856 51.3251 237.899 51.3292 237.941 51.3423C237.99 51.3541 238.037 51.3737 238.08 51.4004C238.11 51.4225 238.132 51.4529 238.144 51.4877C238.328 51.9596 238.462 52.4489 238.546 52.9481C238.651 53.4601 238.738 53.9896 238.819 54.5191C238.901 55.0486 238.976 55.5839 239.04 56.125C239.09 56.6833 239.18 57.2375 239.308 57.7832C239.377 58.0622 239.464 58.3363 239.57 58.6036C239.629 58.7532 239.712 58.8926 239.814 59.0167C239.854 59.0683 239.907 59.1077 239.967 59.1303C240.028 59.153 240.094 59.158 240.158 59.1447C240.216 59.1253 240.269 59.0909 240.311 59.0451C240.353 58.9992 240.382 58.9433 240.396 58.8829C240.465 58.5855 240.487 58.2792 240.46 57.9752C240.46 57.6843 240.425 57.3934 240.396 57.1141C240.355 56.6253 240.309 56.1424 240.291 55.6653C240.277 55.4309 240.277 55.1957 240.291 54.9613C240.303 54.8575 240.328 54.7557 240.367 54.6587C240.379 54.6267 240.397 54.5972 240.419 54.5715H240.495C240.879 54.4144 241.007 54.9496 241.112 55.3802C241.217 55.8108 241.257 56.2995 241.35 56.7592C241.502 57.6726 241.699 58.5861 241.798 59.4589C241.866 59.8768 241.85 60.3039 241.752 60.7157C241.612 61.1346 241.473 61.5477 241.339 61.9608V62.0015V62.0364C242.02 64.8949 242.889 67.7054 243.94 70.4498C244.859 72.9342 245.784 75.1045 246.593 76.85C247.401 78.5955 248.135 79.9628 248.635 80.8821L249.217 81.9236C249.28 82.0477 249.356 82.1648 249.444 82.2727C249.395 82.1435 249.334 82.0189 249.263 81.9003L248.681 80.8356C248.204 79.8988 247.518 78.5082 246.727 76.7627C245.935 75.0172 245.039 72.847 244.143 70.3625C243.118 67.6223 242.267 64.82 241.595 61.9724V62.0539C241.729 61.6466 241.862 61.2335 242.002 60.8204C242.123 60.367 242.147 59.8931 242.072 59.4298C241.967 58.5163 241.775 57.6319 241.624 56.7126C241.537 56.2588 241.478 55.7933 241.385 55.3162C241.379 55.0711 241.338 54.8281 241.263 54.5947C241.197 54.4528 241.084 54.3378 240.943 54.2689C240.794 54.22 240.633 54.22 240.483 54.2689H240.39C240.341 54.2847 240.295 54.3104 240.257 54.3445C240.192 54.3993 240.142 54.4693 240.111 54.5482C240.058 54.6741 240.024 54.8076 240.012 54.9438C239.995 55.1957 239.995 55.4484 240.012 55.7002C240.012 56.189 240.082 56.6777 240.123 57.1664C240.123 57.4515 240.169 57.7483 240.181 58.0101C240.204 58.2726 240.19 58.5369 240.14 58.7956C240.14 58.8538 240.094 58.8421 240.14 58.8712L240.105 58.8363C240.031 58.7413 239.972 58.6353 239.931 58.5221C239.829 58.2704 239.745 58.0118 239.68 57.7483C239.553 57.2184 239.465 56.6796 239.419 56.1366C239.357 55.5897 239.281 55.0486 239.192 54.5133C239.11 53.978 239.017 53.4543 238.912 52.9307C238.825 52.3977 238.676 51.8765 238.47 51.3772C238.43 51.2938 238.368 51.2232 238.29 51.1735C238.222 51.1342 238.15 51.103 238.075 51.0804C237.992 51.0587 237.905 51.0536 237.82 51.0656C237.735 51.0776 237.654 51.1064 237.58 51.1503C237.46 51.2399 237.36 51.3534 237.286 51.4835C237.212 51.6137 237.165 51.7577 237.149 51.9066C237.112 52.171 237.112 52.4394 237.149 52.7038C237.149 52.9539 237.208 53.1983 237.225 53.4427C237.306 54.3947 237.324 55.351 237.278 56.3053C237.264 56.532 237.235 56.7575 237.19 56.9803C237.174 57.0843 237.144 57.1859 237.103 57.2828C237.088 57.3212 237.066 57.3566 237.039 57.3875C237.039 57.4399 236.998 57.3875 237.004 57.4574C237.004 57.3992 237.004 57.4574 237.004 57.3817C236.978 57.3424 236.955 57.3016 236.934 57.2595C236.893 57.1664 236.859 57.0617 236.824 56.9628C236.76 56.7533 236.713 56.5381 236.667 56.3286C236.363 54.7354 236.144 53.1273 236.009 51.511C236.027 51.2185 235.993 50.9251 235.91 50.6441C235.872 50.4974 235.793 50.3644 235.683 50.26C235.626 50.205 235.559 50.1622 235.485 50.1342C235.411 50.1062 235.332 50.0936 235.253 50.0971H235.288C235.189 50.0827 235.089 50.0977 234.999 50.1401C234.909 50.1825 234.833 50.2506 234.781 50.3357C234.695 50.4745 234.636 50.6285 234.607 50.7895C234.558 51.078 234.531 51.3697 234.525 51.6623C234.525 52.2441 234.525 52.7503 234.525 53.2449C234.581 54.0808 234.687 54.9124 234.845 55.7351C234.944 56.4101 235.02 56.9337 235.055 57.2886C235.066 57.3508 235.055 57.4149 235.025 57.47C234.994 57.5252 234.945 57.568 234.886 57.5912C234.712 57.6086 234.659 57.6145 234.665 57.6203Z" fill="#A36957"/>
<path d="M196.802 87.3163C195.666 87.2921 194.533 87.4232 193.433 87.7061C190.425 88.4974 185.241 91.6394 185.025 95.5202H188.796C188.796 95.5202 186.684 100.012 187.3 99.5931C188.912 98.5109 192.112 95.2584 192.112 95.2584L196.802 87.3163Z" fill="#FFB573"/>
<path d="M248.235 19.676C248.148 19.676 247.811 16.569 247.473 12.694C247.136 8.81892 246.926 5.71191 247.008 5.71191C247.089 5.71191 247.433 8.81892 247.77 12.694C248.107 16.569 248.317 19.676 248.235 19.676Z" fill="#263238"/>
<path d="M264.765 5.95943C264.829 6.00598 262.287 9.70064 259.081 14.2099C255.875 18.7191 253.216 22.3556 253.146 22.2858C253.076 22.216 255.625 18.5446 258.83 14.0353C262.036 9.52609 264.695 5.91288 264.765 5.95943Z" fill="#263238"/>
<path d="M271.576 22.7053C271.576 22.7868 268.62 23.4675 264.943 24.2239C261.266 24.9803 258.264 25.5272 258.246 25.4458C258.229 25.3643 261.196 24.6835 264.879 23.9272C268.562 23.1708 271.535 22.6238 271.576 22.7053Z" fill="#263238"/>
<path d="M73.8028 102.642L53.2058 208.42L50.5293 222.268L187.843 221.605C194.01 221.575 199.48 216.1 201.452 207.966L225.808 108.106C227.315 101.932 224.01 95.5088 219.332 95.5147L80.3194 95.6601C77.2938 95.6543 74.5824 98.5169 73.8028 102.642Z" fill="#407BFF"/>
<g opacity="0.5">
<path d="M73.7559 102.644L53.1589 208.422L50.4824 222.27L187.796 221.607C193.963 221.577 199.433 216.102 201.405 207.968L225.761 108.108C227.268 101.934 223.963 95.5108 219.285 95.5166L80.2725 95.6621C77.2469 95.6562 74.5356 98.5189 73.7559 102.644Z" fill="black"/>
</g>
<path d="M174.416 201.72L159.87 84.5319C159.288 79.7318 155.454 76.1476 150.933 76.1651L119.048 76.264C117.863 76.2774 116.694 76.5319 115.61 77.012C114.527 77.4922 113.553 78.1879 112.747 79.0568L97.6193 95.1563L8.94738 95.6334C3.53048 95.6625 -0.635479 100.794 0.0801802 106.554L13.5846 214.863C14.1665 219.658 18.0008 223.236 22.51 223.23L177.075 222.922C194.286 223.277 195.932 218.197 195.932 218.197C176.173 222.567 174.416 201.749 174.416 201.72Z" fill="#407BFF"/>
<path d="M196.682 26.5397C196.494 26.4603 196.332 26.329 196.215 26.1611C196.099 25.9931 196.033 25.7955 196.024 25.5913L195.792 20.1919C195.783 20.0241 195.814 19.8567 195.882 19.703C195.95 19.5492 196.052 19.4133 196.182 19.3061C196.311 19.1988 196.463 19.1231 196.627 19.085C196.79 19.0469 196.961 19.0473 197.124 19.0864C197.575 19.1836 198.04 19.1878 198.492 19.0987C198.945 19.0097 199.374 18.8293 199.754 18.5685C200.104 18.347 200.405 18.0562 200.638 17.714C200.871 17.3717 201.032 16.9853 201.11 16.5787C201.162 16.1669 201.132 15.7487 201.02 15.3489C200.908 14.9491 200.717 14.5759 200.458 14.2513C200.185 13.882 199.842 13.5701 199.449 13.3335C199.056 13.0969 198.62 12.9402 198.166 12.8723C197.25 12.8214 196.344 13.081 195.594 13.6089C194.845 14.1369 194.295 14.9024 194.035 15.7815C193.948 16.0479 193.761 16.2705 193.514 16.4029C193.267 16.5353 192.979 16.5674 192.709 16.4924C192.439 16.4174 192.208 16.2411 192.065 16.0003C191.922 15.7595 191.877 15.4727 191.94 15.1997C192.336 13.8169 193.196 12.6126 194.375 11.7893C195.554 10.966 196.981 10.5738 198.416 10.6788C199.162 10.7783 199.881 11.0268 200.53 11.4096C201.179 11.7924 201.744 12.3017 202.192 12.9073C202.628 13.4685 202.946 14.1114 203.129 14.798C203.312 15.4846 203.355 16.2009 203.257 16.9045C203.124 17.6071 202.85 18.2752 202.449 18.8676C202.049 19.4599 201.532 19.9641 200.929 20.349C200.056 20.9366 199.037 21.2691 197.985 21.309L198.166 25.4749C198.172 25.658 198.133 25.8398 198.051 26.0034C197.968 26.1671 197.846 26.3074 197.695 26.4112C197.544 26.5151 197.37 26.5792 197.188 26.5976C197.005 26.616 196.821 26.588 196.653 26.5164L196.682 26.5397Z" fill="#407BFF"/>
<path d="M198.296 28.7749C198.308 28.9507 198.268 29.126 198.18 29.2789C198.093 29.4318 197.962 29.5553 197.805 29.6338C197.647 29.7123 197.469 29.7423 197.295 29.7199C197.12 29.6975 196.956 29.6238 196.823 29.5081C196.69 29.3924 196.595 29.2399 196.549 29.0699C196.503 28.8999 196.508 28.7201 196.564 28.5531C196.62 28.3862 196.725 28.2397 196.864 28.1321C197.003 28.0245 197.172 27.9607 197.347 27.9487C197.464 27.94 197.581 27.9546 197.692 27.9915C197.803 28.0284 197.906 28.087 197.994 28.1638C198.082 28.2407 198.154 28.3343 198.206 28.4392C198.258 28.5441 198.288 28.6582 198.296 28.7749Z" fill="#407BFF"/>
<path d="M178.027 18.9342C178.052 18.819 178.069 18.7024 178.079 18.585C178.079 18.329 178.143 18.0032 178.19 17.5436C178.247 16.9792 178.342 16.4194 178.475 15.8679C178.55 15.542 178.591 15.1813 178.708 14.8147C178.824 14.4482 178.94 14.0525 179.068 13.6511C179.742 11.6619 180.724 9.79086 181.977 8.10617C183.621 5.92465 185.704 4.11283 188.093 2.78817C189.452 2.02169 190.9 1.42381 192.404 1.00775C194.027 0.577452 195.699 0.358422 197.379 0.356095C198.263 0.341889 199.148 0.388547 200.026 0.495737C200.474 0.542284 200.916 0.658651 201.364 0.73429C201.817 0.811893 202.264 0.920763 202.702 1.06012C204.536 1.57262 206.281 2.36341 207.875 3.40492C211.42 5.70391 214.12 9.09419 215.567 13.0634C216.346 15.1896 216.74 17.4377 216.731 19.7022C216.755 22.035 216.342 24.3517 215.515 26.5329L215.253 27.1962L215.218 27.2835L215.253 27.3708C216.713 30.728 218.162 34.027 219.529 37.2213L219.774 36.942L211.046 33.5964L210.941 33.5557L210.854 33.6372C208.545 35.8742 205.719 37.5053 202.627 38.385C199.985 39.1123 197.219 39.2711 194.511 38.8509C191.803 38.4307 189.215 37.4409 186.917 35.9471C185.036 34.7131 183.377 33.1687 182.012 31.3796C180.035 28.7683 178.753 25.6969 178.289 22.4543C178.219 21.8724 178.161 21.3837 178.108 20.9415C178.056 20.4993 178.108 20.1386 178.079 19.8302C178.05 19.5218 178.079 19.3182 178.079 19.1494C178.108 19.145 178.134 19.1298 178.153 19.1069C178.171 19.0839 178.18 19.0549 178.178 19.0256C178.176 18.9964 178.162 18.969 178.141 18.9491C178.119 18.9291 178.091 18.918 178.062 18.918C178.032 18.918 178.004 18.9291 177.983 18.9491C177.961 18.969 177.948 18.9964 177.946 19.0256C177.943 19.0549 177.952 19.0839 177.971 19.1069C177.989 19.1298 178.015 19.145 178.044 19.1494C178.044 19.3182 178.044 19.5451 178.044 19.8302C178.044 20.1153 178.044 20.5109 178.044 20.9531C178.044 21.3953 178.143 21.9015 178.201 22.4775C178.393 23.877 178.726 25.2534 179.196 26.5853C179.862 28.3443 180.758 30.0073 181.861 31.5309C183.231 33.3519 184.902 34.926 186.801 36.1856C189.127 37.7168 191.751 38.7359 194.501 39.1753C197.25 39.6147 200.062 39.4643 202.749 38.7341C205.878 37.8453 208.74 36.1986 211.081 33.9397L210.889 33.9805L219.616 37.3435L220.053 37.5122L219.861 37.0642C218.476 33.8699 217.045 30.5767 215.59 27.2137V27.3824L215.858 26.7017C216.707 24.4729 217.129 22.1044 217.103 19.7196C217.121 17.407 216.727 15.1097 215.939 12.9354C214.461 8.88708 211.701 5.43234 208.079 3.09655C206.444 2.03075 204.654 1.22593 202.772 0.711016C202.327 0.570123 201.872 0.463147 201.411 0.391006C200.957 0.309549 200.509 0.193181 200.055 0.152453C199.165 0.0419943 198.269 -0.00854445 197.373 0.00117624C195.667 0.00839853 193.969 0.23922 192.323 0.687744C190.798 1.12056 189.331 1.73389 187.953 2.51471C185.541 3.87187 183.444 5.72623 181.803 7.95489C180.553 9.66747 179.584 11.5688 178.934 13.5871C178.812 14.006 178.696 14.4075 178.591 14.7507C178.499 15.1015 178.425 15.4569 178.37 15.8155C178.245 16.3708 178.164 16.9349 178.126 17.5028C178.091 17.9508 178.068 18.2941 178.05 18.5501C178.026 18.6766 178.018 18.8057 178.027 18.9342Z" fill="#263238"/>
</svg>
